<?xml version="1.0" standalone="no"?>
<!DOCTYPE svg PUBLIC "-//W3C//DTD SVG 20010904//EN"
 "http://www.w3.org/TR/2001/REC-SVG-20010904/DTD/svg10.dtd">
<svg version="1.0" xmlns="http://www.w3.org/2000/svg"
 width="260.000000pt" height="260.000000pt" viewBox="0 0 260.000000 260.000000"
 preserveAspectRatio="xMidYMid meet">
<metadata>
Created by potrace 1.11, written by Peter Selinger 2001-2013
</metadata>
<g transform="translate(0.000000,260.000000) scale(0.100000,-0.100000)"
fill="#000000" stroke="none">
<path d="M0 1300 l0 -1300 1300 0 1300 0 0 1300 0 1300 -1300 0 -1300 0 0
-1300z m1279 432 c7 -14 6 -25 -5 -41 -15 -21 -17 -21 -35 -5 -22 20 -24 35
-7 52 17 17 36 15 47 -6z m48 -88 c43 -21 82 -72 90 -118 l6 -36 -47 0 c-40 0
-47 3 -44 18 2 10 12 17 26 16 28 -1 28 16 1 50 -43 55 -103 69 -166 40 -57
-28 -86 -87 -43 -88 15 -1 26 -8 28 -18 3 -15 -4 -18 -42 -18 -43 0 -46 2 -46
25 0 50 47 113 100 134 38 15 98 13 137 -5z m-994 -261 l-43 -4 -2 -102 -2
-102 -5 100 -6 100 -45 6 c-30 4 -13 6 50 6 52 0 76 -2 53 -4z m300 -70 c41
17 48 16 20 -1 -30 -20 -32 -26 -36 -84 -2 -35 -3 -11 -3 52 0 63 1 95 3 72 3
-29 8 -42 16 -39z m204 55 c-3 -8 -6 -5 -6 6 -1 11 2 17 5 13 3 -3 4 -12 1
-19z m830 -145 c-2 -32 -3 -6 -3 57 0 63 1 89 3 58 2 -32 2 -84 0 -115z m-287
51 c0 -67 -4 -103 -10 -99 -6 3 -10 50 -10 106 0 59 4 99 10 99 6 0 10 -42 10
-106z m908 24 c-1 -51 -3 -65 -5 -37 -3 35 -9 49 -26 58 l-22 11 23 -6 c19 -5
22 -2 22 25 0 17 2 31 5 31 3 0 4 -37 3 -82z m-1283 29 l50 -3 -57 -2 -58 -2
0 -54 c0 -73 17 -90 83 -83 28 2 43 1 35 -4 -7 -5 -32 -9 -55 -9 -54 0 -73 25
-73 97 0 48 -2 53 -22 54 l-23 2 23 4 c12 2 22 12 22 21 0 14 1 14 13 -1 7
-10 31 -17 62 -20z m-266 -5 c20 -15 22 -25 18 -87 l-3 -70 -2 73 c-2 72 -2
73 -34 87 -18 8 -26 14 -17 15 9 0 27 -8 38 -18z m794 11 c-7 -2 -19 -2 -25 0
-7 3 -2 5 12 5 14 0 19 -2 13 -5z m274 1 c-3 -3 -12 -4 -19 -1 -8 3 -5 6 6 6
11 1 17 -2 13 -5z m420 0 c-3 -3 -12 -4 -19 -1 -8 3 -5 6 6 6 11 1 17 -2 13
-5z m257 -14 c7 -7 1 -7 -19 -1 -54 17 -61 21 -25 16 19 -3 39 -10 44 -15z
m-1944 -16 c12 -30 13 -145 2 -127 -5 8 -13 9 -22 3 -21 -14 -94 -12 -108 2
-7 7 -12 20 -12 29 0 19 25 49 42 49 6 0 0 -9 -13 -19 -20 -16 -22 -23 -13
-38 15 -25 86 -30 108 -7 22 22 15 102 -10 121 -17 12 -17 13 -1 13 10 0 22
-12 27 -26z m297 -96 c-2 -24 -4 -5 -4 42 0 47 2 66 4 43 2 -24 2 -62 0 -85z
m290 0 c-2 -24 -4 -5 -4 42 0 47 2 66 4 43 2 -24 2 -62 0 -85z m353 115 c-47
-18 -27 -48 38 -58 26 -4 55 -11 65 -16 21 -12 22 -42 1 -63 -21 -21 -104 -21
-130 0 -18 15 -18 15 3 5 12 -6 42 -11 66 -11 82 0 90 57 11 72 -74 15 -82 18
-88 34 -8 20 11 44 33 43 13 0 14 -2 1 -6z m100 -3 c8 -5 11 -10 5 -10 -5 0
-17 5 -25 10 -8 5 -10 10 -5 10 6 0 17 -5 25 -10z m268 -2 c11 -15 22 -152 10
-140 -4 4 -8 36 -9 70 -1 46 -6 65 -18 72 -9 5 -11 10 -5 10 6 0 16 -6 22 -12z
m112 2 c8 6 22 10 30 9 8 0 1 -6 -17 -14 -31 -13 -32 -16 -36 -82 -3 -67 -3
-67 -5 17 -1 47 2 80 6 73 5 -8 13 -9 22 -3z m110 -9 c5 -11 9 -48 8 -83 l-1
-63 -6 73 c-4 49 -11 76 -21 82 -9 6 -10 10 -3 10 7 0 17 -9 23 -19z m95 -6
c-31 -30 -33 -77 -5 -105 24 -24 91 -27 110 -5 7 9 15 13 18 10 12 -12 -36
-34 -75 -35 -33 0 -46 5 -62 26 -27 35 -27 81 1 111 12 13 25 23 29 23 5 0 -3
-11 -16 -25z m218 15 c-37 -15 -28 -38 20 -50 23 -5 53 -13 66 -18 70 -21 41
-82 -40 -82 -52 0 -79 7 -79 21 0 6 8 5 19 -1 29 -15 97 -12 115 5 20 21 10
44 -23 51 -79 18 -103 26 -108 40 -7 18 14 44 36 43 11 0 9 -3 -6 -9z m-1890
-57 c-7 -2 -19 -2 -25 0 -7 3 -2 5 12 5 14 0 19 -2 13 -5z m1300 -3 c-94 -22
-79 -92 17 -78 16 2 27 1 24 -4 -9 -14 -91 -9 -104 6 -30 37 12 87 70 85 21
-1 20 -2 -7 -9z m-939 -176 c-7 -3 -10 -14 -7 -24 3 -11 1 -20 -5 -20 -5 0
-12 11 -14 25 -4 20 -1 25 16 24 11 0 16 -3 10 -5z m171 -21 c1 -12 -2 -20 -7
-17 -5 4 -7 12 -4 20 3 8 -1 14 -10 14 -8 0 -13 -4 -10 -8 2 -4 1 -14 -5 -22
-6 -11 -9 -8 -9 13 0 23 4 28 22 25 14 -2 22 -11 23 -25z m159 11 c10 -25 7
-30 -14 -30 -25 0 -27 16 -2 17 10 0 12 3 5 6 -15 5 -17 23 -4 23 5 0 12 -7
15 -16z m156 -12 c0 9 4 19 10 23 5 3 4 -8 -2 -26 l-11 -32 -13 24 c-7 13 -13
29 -13 34 0 6 6 -1 14 -15 10 -18 14 -20 15 -8z m161 21 c-11 -5 -11 -7 0 -14
10 -6 11 -9 2 -9 -19 0 -16 -18 5 -23 13 -4 11 -5 -5 -6 -19 -1 -23 4 -23 29
0 22 5 30 18 29 12 0 13 -2 3 -6z m167 -46 c12 -3 10 -5 -5 -6 -20 -1 -23 4
-22 32 2 29 2 29 6 5 2 -15 12 -29 21 -31z"/>
</g>
</svg>
